<?xml version="1.0" standalone="no"?>
<!DOCTYPE svg PUBLIC "-//W3C//DTD SVG 20010904//EN"
 "http://www.w3.org/TR/2001/REC-SVG-20010904/DTD/svg10.dtd">
<svg version="1.0" xmlns="http://www.w3.org/2000/svg"
 width="1485.000000pt" height="671.000000pt" viewBox="0 0 1485.000000 671.000000"
 preserveAspectRatio="xMidYMid meet">

<g transform="translate(0.000000,671.000000) scale(0.100000,-0.100000)"
fill="#000000" stroke="none">
<path d="M20 3575 l0 -3125 80 0 80 0 0 3125 0 3125 -80 0 -80 0 0 -3125z"/>
<path d="M270 3575 l0 -3125 35 0 35 0 0 3125 0 3125 -35 0 -35 0 0 -3125z"/>
<path d="M520 3575 l0 -3125 35 0 35 0 0 3125 0 3125 -35 0 -35 0 0 -3125z"/>
<path d="M932 3783 l3 -2918 35 0 35 0 3 2918 2 2917 -40 0 -40 0 2 -2917z"/>
<path d="M1182 3783 l3 -2918 120 0 120 0 3 2918 2 2917 -125 0 -125 0 2
-2917z"/>
<path d="M1520 3780 l0 -2921 78 3 77 3 3 2918 2 2917 -80 0 -80 0 0 -2920z"/>
<path d="M1852 3783 l3 -2918 35 0 35 0 3 2918 2 2917 -40 0 -40 0 2 -2917z"/>
<path d="M2102 3783 l3 -2918 118 -3 117 -3 0 2921 0 2920 -120 0 -120 0 2
-2917z"/>
<path d="M2520 3780 l0 -2921 78 3 77 3 3 2918 2 2917 -80 0 -80 0 0 -2920z"/>
<path d="M2770 3780 l0 -2921 78 3 77 3 3 2918 2 2917 -80 0 -80 0 0 -2920z"/>
<path d="M3102 3783 l3 -2918 118 -3 117 -3 0 2921 0 2920 -120 0 -120 0 2
-2917z"/>
<path d="M3520 3780 l0 -2920 35 0 35 0 0 2920 0 2920 -35 0 -35 0 0 -2920z"/>
<path d="M3682 3783 l3 -2918 78 -3 77 -3 0 2921 0 2920 -80 0 -80 0 2 -2917z"/>
<path d="M4020 3780 l0 -2920 35 0 35 0 0 2920 0 2920 -35 0 -35 0 0 -2920z"/>
<path d="M4182 3783 l3 -2918 120 0 120 0 3 2918 2 2917 -125 0 -125 0 2
-2917z"/>
<path d="M4602 3783 l3 -2918 75 0 75 0 3 2918 2 2917 -80 0 -80 0 2 -2917z"/>
<path d="M4932 3783 l3 -2918 35 0 35 0 3 2918 2 2917 -40 0 -40 0 2 -2917z"/>
<path d="M5182 3783 l3 -2918 120 0 120 0 3 2918 2 2917 -125 0 -125 0 2
-2917z"/>
<path d="M5520 3780 l0 -2921 78 3 77 3 3 2918 2 2917 -80 0 -80 0 0 -2920z"/>
<path d="M5770 3780 l0 -2921 118 3 117 3 3 2918 2 2917 -120 0 -120 0 0
-2920z"/>
<path d="M6182 3783 l3 -2918 35 0 35 0 3 2918 2 2917 -40 0 -40 0 2 -2917z"/>
<path d="M6432 3783 l3 -2918 78 -3 77 -3 0 2921 0 2920 -80 0 -80 0 2 -2917z"/>
<path d="M6770 3780 l0 -2921 118 3 117 3 3 2918 2 2917 -120 0 -120 0 0
-2920z"/>
<path d="M7102 3783 l3 -2918 35 0 35 0 3 2918 2 2917 -40 0 -40 0 2 -2917z"/>
<path d="M7352 3783 l3 -2918 118 -3 117 -3 0 2921 0 2920 -120 0 -120 0 2
-2917z"/>
<path d="M7682 3783 l3 -2918 78 -3 77 -3 0 2921 0 2920 -80 0 -80 0 2 -2917z"/>
<path d="M7932 3783 l3 -2918 120 0 120 0 3 2918 2 2917 -125 0 -125 0 2
-2917z"/>
<path d="M8270 3780 l0 -2921 118 3 117 3 3 2918 2 2917 -120 0 -120 0 0
-2920z"/>
<path d="M8602 3783 l3 -2918 35 0 35 0 3 2918 2 2917 -40 0 -40 0 2 -2917z"/>
<path d="M8852 3783 l3 -2918 75 0 75 0 3 2918 2 2917 -80 0 -80 0 2 -2917z"/>
<path d="M9182 3783 l3 -2918 120 0 120 0 3 2918 2 2917 -125 0 -125 0 2
-2917z"/>
<path d="M9602 3783 l3 -2918 35 0 35 0 3 2918 2 2917 -40 0 -40 0 2 -2917z"/>
<path d="M9770 3780 l0 -2921 78 3 77 3 3 2918 2 2917 -80 0 -80 0 0 -2920z"/>
<path d="M10102 3783 l3 -2918 35 0 35 0 3 2918 2 2917 -40 0 -40 0 2 -2917z"/>
<path d="M10352 3783 l3 -2918 118 -3 117 -3 0 2921 0 2920 -120 0 -120 0 2
-2917z"/>
<path d="M10770 3780 l0 -2921 78 3 77 3 3 2918 2 2917 -80 0 -80 0 0 -2920z"/>
<path d="M11020 3780 l0 -2921 78 3 77 3 3 2918 2 2917 -80 0 -80 0 0 -2920z"/>
<path d="M11352 3783 l3 -2918 118 -3 117 -3 0 2921 0 2920 -120 0 -120 0 2
-2917z"/>
<path d="M11770 3780 l0 -2920 35 0 35 0 0 2920 0 2920 -35 0 -35 0 0 -2920z"/>
<path d="M11932 3783 l3 -2918 78 -3 77 -3 0 2921 0 2920 -80 0 -80 0 2 -2917z"/>
<path d="M12270 3780 l0 -2920 35 0 35 0 0 2920 0 2920 -35 0 -35 0 0 -2920z"/>
<path d="M12432 3783 l3 -2918 120 0 120 0 3 2918 2 2917 -125 0 -125 0 2
-2917z"/>
<path d="M12852 3783 l3 -2918 35 0 35 0 3 2918 2 2917 -40 0 -40 0 2 -2917z"/>
<path d="M13102 3783 l3 -2918 75 0 75 0 3 2918 2 2917 -80 0 -80 0 2 -2917z"/>
<path d="M13520 3780 l0 -2920 35 0 35 0 0 2920 0 2920 -35 0 -35 0 0 -2920z"/>
<path d="M13770 3575 l0 -3125 80 0 80 0 0 3125 0 3125 -80 0 -80 0 0 -3125z"/>
<path d="M14180 3575 l0 -3125 125 0 125 0 0 3125 0 3125 -125 0 -125 0 0
-3125z"/>
<path d="M14520 3575 l0 -3125 35 0 35 0 0 3125 0 3125 -35 0 -35 0 0 -3125z"/>
<path d="M14680 3575 l0 -3125 80 0 80 0 0 3125 0 3125 -80 0 -80 0 0 -3125z"/>
<path d="M1147 726 c-96 -26 -150 -112 -170 -267 -22 -179 20 -345 106 -413
32 -26 49 -31 105 -34 163 -9 242 108 242 358 0 186 -38 289 -125 336 -54 29
-101 35 -158 20z m121 -93 c46 -29 65 -96 70 -236 6 -163 -12 -241 -64 -287
-59 -51 -137 -33 -174 40 -42 82 -49 275 -15 396 29 101 106 138 183 87z"/>
<path d="M2130 713 c-27 -77 -51 -97 -132 -111 -39 -7 -43 -10 -46 -40 l-3
-32 80 0 81 0 0 -250 0 -250 45 0 45 0 -2 353 -3 352 -27 3 c-23 3 -30 -2 -38
-25z"/>
<path d="M2988 730 c-97 -17 -163 -87 -175 -189 l-6 -51 45 0 45 0 6 42 c7 52
33 88 80 111 71 35 162 -3 187 -78 26 -78 -16 -139 -147 -212 -152 -85 -201
-142 -222 -258 -6 -32 -11 -60 -11 -62 0 -2 106 -3 235 -3 l235 0 0 45 0 45
-184 0 -185 0 10 30 c15 41 61 78 174 141 59 33 112 71 135 96 113 129 49 311
-119 343 -30 5 -54 9 -55 9 0 -1 -22 -5 -48 -9z"/>
<path d="M3891 729 c-91 -18 -148 -81 -159 -176 l-5 -43 47 0 c45 0 46 1 46
30 0 49 25 86 70 104 50 20 71 20 115 2 55 -23 84 -112 54 -168 -14 -26 -68
-48 -119 -48 -40 0 -40 0 -40 -39 l0 -39 66 -4 c60 -4 70 -7 95 -36 24 -27 29
-41 29 -83 0 -98 -45 -139 -151 -139 -56 0 -64 3 -95 34 -22 22 -35 47 -40 75
-6 40 -8 41 -45 41 -21 0 -40 -4 -43 -9 -13 -21 17 -114 47 -148 45 -52 98
-73 183 -73 56 0 81 5 123 26 73 37 104 86 109 174 5 84 -15 132 -67 162 l-37
21 39 36 c32 30 40 46 44 83 3 26 2 63 -1 83 -18 94 -144 158 -265 134z"/>
<path d="M4791 518 c-154 -213 -161 -225 -161 -270 l0 -48 145 0 145 0 0 -85
0 -85 45 0 45 0 0 85 0 85 55 0 55 0 0 40 0 40 -55 0 -55 0 0 230 0 230 -29 0
c-27 0 -44 -20 -190 -222z m126 -235 c-3 -2 -50 -2 -106 -1 l-101 3 102 144
103 143 3 -142 c1 -79 1 -145 -1 -147z"/>
<path d="M5615 708 c-10 -62 -45 -323 -45 -340 0 -31 64 -23 110 13 34 27 47
32 96 31 90 -1 141 -50 151 -144 4 -45 1 -65 -15 -100 -27 -55 -65 -78 -132
-78 -66 0 -105 21 -130 70 -19 37 -24 40 -60 40 -47 0 -50 -12 -21 -76 42 -93
172 -139 292 -102 161 48 213 298 87 415 -56 52 -167 70 -243 39 -21 -9 -38
-16 -40 -16 -1 0 4 39 11 88 8 48 14 90 14 95 0 4 65 7 145 7 l145 0 0 45 0
45 -180 0 -179 0 -6 -32z"/>
<path d="M6668 726 c-133 -36 -192 -149 -193 -371 0 -144 17 -211 71 -273 44
-52 89 -72 163 -72 69 0 146 35 180 80 73 99 67 235 -14 315 -78 79 -191 86
-282 18 -18 -13 -33 -20 -33 -16 0 4 5 37 11 73 18 115 69 175 148 175 48 0
89 -27 107 -71 13 -31 18 -34 54 -34 47 0 50 12 21 76 -23 51 -72 90 -131 103
-53 12 -44 13 -102 -3z m108 -351 c65 -27 92 -130 55 -212 -45 -99 -197 -99
-244 0 -65 136 53 269 189 212z"/>
<path d="M7397 734 c-4 -4 -7 -25 -7 -46 l0 -38 190 0 c105 0 190 -2 190 -5 0
-2 -27 -46 -61 -97 -34 -51 -79 -129 -101 -173 -38 -75 -118 -299 -118 -330 0
-11 12 -15 45 -15 41 0 45 2 51 28 38 179 113 354 220 514 52 79 65 105 62
131 l-3 32 -231 3 c-127 1 -233 -1 -237 -4z"/>
<path d="M8481 729 c-63 -12 -115 -50 -140 -101 -36 -75 -22 -150 37 -200 l31
-26 -41 -32 c-48 -39 -68 -82 -68 -149 0 -63 13 -97 53 -140 45 -47 101 -71
171 -71 82 0 134 18 182 65 87 84 83 233 -9 297 -18 12 -34 23 -36 24 -2 2 12
18 32 36 55 52 67 134 29 203 -38 71 -145 113 -241 94z m91 -79 c80 -23 107
-123 49 -181 -25 -25 -37 -29 -84 -29 -45 0 -61 5 -86 26 -68 57 -43 165 44
187 32 8 38 7 77 -3z m38 -308 c87 -46 92 -181 8 -232 -23 -14 -50 -20 -92
-20 -55 0 -61 3 -97 39 -35 34 -39 44 -39 87 0 61 16 92 59 121 42 29 112 31
161 5z"/>
<path d="M9388 726 c-110 -30 -168 -111 -168 -235 0 -108 67 -191 170 -212 67
-14 124 -1 171 38 l32 27 -5 -65 c-10 -119 -64 -189 -148 -189 -55 0 -90 23
-110 70 -11 27 -17 30 -57 30 -41 0 -44 -2 -38 -22 14 -49 43 -93 78 -122 74
-59 205 -45 280 31 88 88 121 323 69 492 -38 125 -152 190 -274 157z m120 -86
c72 -33 103 -134 64 -209 -50 -100 -197 -106 -244 -11 -41 82 -12 185 62 222
44 23 65 22 118 -2z"/>
<path d="M10380 713 c-27 -77 -51 -97 -132 -111 -39 -7 -43 -10 -46 -40 l-3
-32 80 0 81 0 0 -250 0 -250 45 0 45 0 -2 353 -3 352 -27 3 c-23 3 -30 -2 -38
-25z"/>
<path d="M11238 730 c-97 -17 -163 -87 -175 -189 l-6 -51 45 0 45 0 6 42 c7
52 33 88 80 111 71 35 162 -3 187 -78 26 -78 -16 -139 -147 -212 -152 -85
-201 -142 -222 -258 -6 -32 -11 -60 -11 -62 0 -2 106 -3 235 -3 l235 0 0 45 0
45 -184 0 -185 0 10 30 c15 41 61 78 174 141 59 33 112 71 135 96 113 129 49
311 -119 343 -30 5 -54 9 -55 9 0 -1 -22 -5 -48 -9z"/>
<path d="M12141 729 c-91 -18 -148 -81 -159 -176 l-5 -43 47 0 c45 0 46 1 46
30 0 49 25 86 70 104 50 20 71 20 115 2 55 -23 84 -112 54 -168 -14 -26 -68
-48 -119 -48 -40 0 -40 0 -40 -39 l0 -39 66 -4 c60 -4 70 -7 95 -36 24 -27 29
-41 29 -83 0 -98 -45 -139 -151 -139 -56 0 -64 3 -95 34 -22 22 -35 47 -40 75
-6 40 -8 41 -45 41 -21 0 -40 -4 -43 -9 -13 -21 17 -114 47 -148 45 -52 98
-73 183 -73 56 0 81 5 123 26 73 37 104 86 109 174 5 84 -15 132 -67 162 l-37
21 39 36 c32 30 40 46 44 83 3 26 2 63 -1 83 -18 94 -144 158 -265 134z"/>
</g>
</svg>
